# File created by Blade
# Date/Time:  Wed Apr 08 17:24:36 2015
# Frame Rate: 120.000 fps
#------------------------------------------------------
:FULLY-SPECIFIED
:DEGREES
1423
root 0.554289 36.902582 7.428112 164.805721 -42.283457 -188.803321
Spine 37.918041 18.395650 -3.681548
Head 13.554788 5.401688 2.285163
LeftShoulder -11.045375 19.131304 14.500005
LeftArm 12.055942 8.910627 -88.045670
LeftForeArm 17.799876 -0.000000 26.536010
LeftHand -13.565703 0.000000 -18.719175
LeftHandThumb1 -26.253704 0.000000 33.147579
RightShoulder -16.614358 -38.935176 -9.730115
RightArm 71.656793 -6.127053 57.121212
RightForeArm 6.902696 -0.000000 33.301290
RightHand -1.198845 -0.000000 15.354595
RightHandThumb1 -24.326973 -0.000000 -32.862282
LeftUpLeg 10.534794 32.023416 0.706927
LeftLeg 23.619400 -0.000000 -0.000000
LeftFoot -1.149178 20.293627 -7.587917
LeftToeBase -12.584061 -0.000000 0.000000
RightUpLeg 37.718114 -22.339891 -15.444672
RightLeg 18.841783 -0.000000 -0.000000
RightFoot 0.086642 -0.054597 18.679783
RightToeBase -23.819005 -0.000000 0.000000
1424
root 0.411985 36.891831 7.417983 165.764642 -43.621954 -189.018351
Spine 36.931420 17.953196 -3.728497
Head 14.467431 5.569434 1.760171
LeftShoulder -11.145879 19.203170 14.481404
LeftArm 12.162663 8.769902 -88.268044
LeftForeArm 17.618516 -0.000000 27.233430
LeftHand -13.382461 -0.000000 -18.657355
LeftHandThumb1 -26.253704 0.000000 33.147579
RightShoulder -16.910988 -39.214762 -9.223877
RightArm 71.384380 -7.277495 57.989617
RightForeArm 6.445023 0.000000 32.888148
RightHand -1.171205 0.000000 15.902473
RightHandThumb1 -24.326973 -0.000000 -32.862282
LeftUpLeg 10.729060 31.518296 0.398380
LeftLeg 22.453680 -0.000000 -0.000000
LeftFoot -1.990015 18.839587 -8.837576
LeftToeBase -10.983007 -0.000000 0.000000
RightUpLeg 36.489471 -22.430115 -15.253850
RightLeg 20.256138 -0.000000 -0.000000
RightFoot 0.203747 0.508541 19.722086
RightToeBase -23.714026 -0.000000 0.000000
1425
root 0.279169 36.856257 7.419508 166.791849 -45.179202 -189.237566
Spine 35.906067 17.282699 -3.788835
Head 15.369275 5.889568 1.184215
LeftShoulder -11.206717 19.251055 14.496880
LeftArm 12.359895 8.653353 -88.460415
LeftForeArm 17.648614 -0.000000 27.750379
LeftHand -13.112027 0.000000 -18.644983
LeftHandThumb1 -26.253704 0.000000 33.147579
RightShoulder -17.248864 -39.510603 -8.760453
RightArm 71.226102 -8.407604 58.489369
RightForeArm 6.206468 0.000000 32.346649
RightHand -0.990518 -0.000000 16.041121
RightHandThumb1 -24.326973 -0.000000 -32.862282
LeftUpLeg 10.531440 30.762593 -0.092526
LeftLeg 21.874502 -0.000000 -0.000000
LeftFoot -2.755947 17.471903 -8.232494
LeftToeBase -9.679703 -0.000000 0.000000
RightUpLeg 35.148629 -22.746329 -15.177385
RightLeg 21.997680 -0.000000 -0.000000
RightFoot 0.212545 1.413636 20.567894
RightToeBase -23.320201 -0.000000 0.000000
1426
root 0.126189 36.812339 7.408495 167.509400 -46.636372 -189.613714
Spine 35.393441 16.772705 -3.725268
Head 16.186492 6.178862 0.601721
LeftShoulder -11.246267 19.197419 14.518126
LeftArm 12.616073 8.474540 -88.633134
LeftForeArm 17.399793 -0.000000 28.162176
LeftHand -12.871061 -0.000000 -18.846326
LeftHandThumb1 -26.253704 0.000000 33.147579
RightShoulder -17.641964 -39.723985 -8.144520
RightArm 70.946754 -9.333178 59.315711
RightForeArm 5.529628 -0.000000 31.909267
RightHand -0.986169 -0.000000 15.998242
RightHandThumb1 -24.326973 -0.000000 -32.862282
LeftUpLeg 10.789798 29.594945 -0.435892
LeftLeg 21.632640 -0.000000 -0.000000
LeftFoot -3.474577 15.396983 -9.382617
LeftToeBase -6.984833 -0.000000 0.000000
RightUpLeg 34.233469 -22.620286 -15.190231
RightLeg 23.718530 -0.000000 -0.000000
RightFoot 0.114296 2.337861 21.325702
RightToeBase -22.435290 -0.000000 0.000000
1427
root -0.011182 36.740088 7.412740 168.421081 -48.133253 -189.972213
Spine 34.669110 16.187702 -3.667446
Head 17.013001 6.586328 -0.014523
LeftShoulder -11.279877 19.134921 14.493097
LeftArm 12.941690 8.263892 -88.756813
LeftForeArm 17.533466 -0.000000 28.489234
LeftHand -12.667640 -0.000000 -19.051677
LeftHandThumb1 -26.253704 0.000000 33.147579
RightShoulder -18.095281 -39.970053 -7.359629
RightArm 70.694287 -10.027321 60.301467
RightForeArm 4.844768 -0.000000 31.409920
RightHand -0.994482 -0.000000 15.995678
RightHandThumb1 -24.326973 -0.000000 -32.862282
LeftUpLeg 10.555834 28.535916 -0.981956
LeftLeg 21.615542 -0.000000 -0.000000
LeftFoot -3.982955 13.686087 -9.955898
LeftToeBase -3.672516 -0.000000 0.000000
RightUpLeg 32.964549 -22.485390 -15.049873
RightLeg 25.749851 -0.000000 -0.000000
RightFoot -0.457614 3.406070 22.472340
RightToeBase -20.206395 -0.000000 0.000000
1428
root -0.178327 36.656744 7.408459 168.900131 -49.524592 -190.486624
Spine 34.590316 15.692506 -3.451732
Head 17.705495 7.097446 -0.725524
LeftShoulder -11.343281 19.038972 14.452719
LeftArm 13.385529 8.209928 -88.837433
LeftForeArm 17.665044 -0.000000 28.676222
LeftHand -12.389738 -0.000000 -19.198011
LeftHandThumb1 -26.253704 0.000000 33.147579
RightShoulder -18.565536 -40.166563 -6.592273
RightArm 70.565632 -10.573308 61.183082
RightForeArm 4.376571 0.000000 30.740837
RightHand -1.054887 -0.000000 15.968449
RightHandThumb1 -24.326973 -0.000000 -32.862282
LeftUpLeg 10.983623 27.889099 -1.258225
LeftLeg 21.523216 -0.000000 -0.000000
LeftFoot -4.506205 12.036944 -9.622334
LeftToeBase -3.321677 -0.000000 0.000000
RightUpLeg 32.267251 -22.168481 -15.337146
RightLeg 27.967963 -0.000000 -0.000000
RightFoot -1.092239 4.479742 22.680807
RightToeBase -18.251695 -0.000000 0.000000
1429
root -0.345330 36.559211 7.400589 169.183700 -51.001168 -191.030515
Spine 34.799223 15.119532 -3.195316
Head 18.331825 7.644646 -1.370269
LeftShoulder -11.338378 18.796988 14.450735
LeftArm 13.769877 8.162868 -88.895758
LeftForeArm 17.899654 -0.000000 28.863151
LeftHand -12.328365 0.000000 -19.178076
LeftHandThumb1 -26.253704 0.000000 33.147579
RightShoulder -18.995828 -40.300362 -5.785025
RightArm 70.415087 -10.987902 62.002218
RightForeArm 4.150040 0.000000 30.056715
RightHand -1.030344 -0.000000 15.799306
RightHandThumb1 -24.326973 -0.000000 -32.862282
LeftUpLeg 11.540298 27.395568 -1.373073
LeftLeg 21.588914 -0.000000 -0.000000
LeftFoot -5.252726 10.450289 -9.535780
LeftToeBase -3.364166 -0.000000 0.000000
RightUpLeg 31.812378 -21.833893 -15.700577
RightLeg 30.314892 -0.000000 -0.000000
RightFoot -2.180219 5.342913 22.492021
RightToeBase -16.824173 -0.000000 0.000000
1430
root -0.550227 36.462811 7.371855 168.709475 -52.531251 -191.716493
Spine 36.052117 14.487747 -2.752633
Head 18.747130 8.256129 -2.102209
LeftShoulder -11.346493 18.473581 14.496157
LeftArm 14.273726 8.232643 -88.944858
LeftForeArm 18.052526 -0.000000 28.964268
LeftHand -12.255631 -0.000000 -19.187034
LeftHandThumb1 -26.253704 0.000000 33.147579
RightShoulder -19.372567 -40.366222 -5.112930
RightArm 70.318370 -11.300638 62.832411
RightForeArm 4.137690 -0.000000 29.351326
RightHand -1.013834 -0.000000 15.608464
RightHandThumb1 -24.326973 -0.000000 -32.862282
LeftUpLeg 13.139130 27.210354 -1.006320
LeftLeg 21.611109 -0.000000 -0.000000
LeftFoot -5.837470 8.985471 -9.042480
LeftToeBase -2.461225 -0.000000 0.000000
RightUpLeg 32.467295 -21.271392 -16.567609
RightLeg 32.515272 -0.000000 -0.000000
RightFoot -3.467104 6.083151 21.887243
RightToeBase -14.635260 -0.000000 0.000000
1431
root -0.765254 36.361260 7.336804 168.104153 -53.863371 -192.532704
Spine 37.546286 14.066995 -2.280123
Head 19.177681 8.920181 -2.755363
LeftShoulder -11.255182 18.100488 14.563028
LeftArm 14.781274 8.272373 -88.931310
LeftForeArm 18.335039 0.000000 29.035534
LeftHand -12.189604 0.000000 -19.089679
LeftHandThumb1 -26.253704 0.000000 33.147579
RightShoulder -19.670453 -40.390027 -4.437320
RightArm 70.107728 -11.495348 63.566442
RightForeArm 4.318277 -0.000000 28.737477
RightHand -1.103562 -0.000000 15.335665
RightHandThumb1 -24.326973 -0.000000 -32.862282
LeftUpLeg 14.996138 27.434475 -0.445034
LeftLeg 21.764068 -0.000000 -0.000000
LeftFoot -6.401974 7.462393 -8.349930
LeftToeBase -1.869789 -0.000000 0.000000
RightUpLeg 33.313468 -20.462234 -17.564562
RightLeg 34.801803 -0.000000 -0.000000
RightFoot -4.847232 6.496009 20.899117
RightToeBase -15.124507 -0.000000 0.000000
1432
root -1.025510 36.266275 7.285072 166.976186 -55.102026 -193.606317
Spine 39.864000 13.764253 -1.722130
Head 19.416547 9.569453 -3.369620
LeftShoulder -11.118178 17.699621 14.710601
LeftArm 15.370813 8.492678 -88.871884
LeftForeArm 18.579965 -0.000000 29.071803
LeftHand -12.144700 -0.000000 -18.963646
LeftHandThumb1 -26.253704 0.000000 33.147579
RightShoulder -19.865490 -40.374745 -3.947042
RightArm 69.863090 -11.737976 63.991977
RightForeArm 5.168556 -0.000000 28.223321
RightHand -0.991015 -0.000000 14.651104
RightHandThumb1 -24.326973 -0.000000 -32.862282
LeftUpLeg 17.797137 27.773553 0.445078
LeftLeg 21.953293 -0.000000 -0.000000
LeftFoot -6.977667 6.102285 -7.708034
LeftToeBase -1.609025 -0.000000 0.000000
RightUpLeg 35.063201 -19.306294 -19.085110
RightLeg 36.952967 -0.000000 -0.000000
RightFoot -6.393357 6.799360 20.294111
RightToeBase -14.302435 -0.000000 0.000000
